<svg xmlns="http://www.w3.org/2000/svg" viewBox="0 0 80 80" width="16px" height="16px"><path fill="#8bb7f0" d="M2.5,10c0-3.715,3.785-7.5,7.5-7.5h60c3.715,0,7.5,3.785,7.5,7.5v52c0,3.715-3.785,7.5-7.5,7.5 H13.819L2.5,78.933V10z"/><path fill="#4e7ab5" d="M70,3c3.467,0,7,3.533,7,7v52c0,3.467-3.533,7-7,7H14h-0.362l-0.278,0.232L3,77.865V10 c0-3.467,3.533-7,7-7H70 M70,2H10c-4,0-8,4-8,8v70l12-10h56c4,0,8-4,8-8V10C78,6,74,2,70,2L70,2z"/><path fill="#fff" d="M40 17A3 3 0 1 0 40 23A3 3 0 1 0 40 17Z"/><g><path fill="#fff" d="M43 52L43 27 35 27 35 29 37 29 37 52 35 52 35 54 45 54 45 52z"/></g></svg>